<?xml version="1.0" encoding="iso-8859-1"?>
<!-- Generator: Adobe Illustrator 18.0.0, SVG Export Plug-In . SVG Version: 6.00 Build 0)  -->
<!DOCTYPE svg PUBLIC "-//W3C//DTD SVG 1.1//EN" "http://www.w3.org/Graphics/SVG/1.1/DTD/svg11.dtd">
<svg version="1.1" id="Layer_1" xmlns="http://www.w3.org/2000/svg" xmlns:xlink="http://www.w3.org/1999/xlink" x="0px" y="0px"
	 viewBox="0 0 84 84" style="enable-background:new 0 0 84 84;" xml:space="preserve">
<g>
	<defs>
		<rect id="SVGID_1_" x="-470" y="-47" width="1024" height="1024"/>
	</defs>
	<clipPath id="SVGID_2_">
		<use xlink:href="#SVGID_1_"  style="overflow:visible;"/>
	</clipPath>
	<g style="clip-path:url(#SVGID_2_);">
		<defs>
			<path id="SVGID_3_" d="M37.855,77.405c-0.254-0.031-0.469,0.034-0.645,0.195c-0.176,0.161-0.29,0.45-0.34,0.865
				c-0.05,0.412-0.01,0.717,0.121,0.916c0.131,0.199,0.328,0.314,0.592,0.346c0.271,0.033,0.491-0.029,0.661-0.187
				c0.17-0.158,0.283-0.465,0.339-0.922c0.047-0.384,0.004-0.674-0.129-0.87C38.319,77.551,38.12,77.437,37.855,77.405"/>
		</defs>
		<clipPath id="SVGID_4_">
			<use xlink:href="#SVGID_3_"  style="overflow:visible;"/>
		</clipPath>
		<rect x="31.848" y="72.397" style="clip-path:url(#SVGID_4_);fill:#FFFFFF;" width="11.752" height="12.339"/>
	</g>
</g>
<g>
	<defs>
		<rect id="SVGID_5_" x="-470" y="-47" width="1024" height="6418"/>
	</defs>
	<clipPath id="SVGID_6_">
		<use xlink:href="#SVGID_5_"  style="overflow:visible;"/>
	</clipPath>
	<g style="clip-path:url(#SVGID_6_);">
		<defs>
			<path id="SVGID_7_" d="M42.236,77.611l-0.558-0.009l-0.013,0.835l0.535,0.009c0.058,0.001,0.17-0.016,0.337-0.051
				c0.084-0.015,0.154-0.057,0.208-0.126c0.054-0.068,0.082-0.147,0.084-0.237c0.002-0.133-0.038-0.235-0.121-0.308
				C42.625,77.653,42.468,77.615,42.236,77.611"/>
		</defs>
		<clipPath id="SVGID_8_">
			<use xlink:href="#SVGID_7_"  style="overflow:visible;"/>
		</clipPath>
		<rect x="36.665" y="72.602" style="clip-path:url(#SVGID_8_);fill:#FFFFFF;" width="11.165" height="10.844"/>
	</g>
</g>
<g>
	<defs>
		<rect id="SVGID_9_" x="-470" y="-47" width="1024" height="6418"/>
	</defs>
	<clipPath id="SVGID_10_">
		<use xlink:href="#SVGID_9_"  style="overflow:visible;"/>
	</clipPath>
	<g style="clip-path:url(#SVGID_10_);">
		<defs>
			<path id="SVGID_11_" d="M46.825,77.667c-0.159-0.144-0.402-0.197-0.729-0.16l-0.315,0.036l0.253,2.232l0.309-0.035
				c0.264-0.03,0.448-0.08,0.553-0.151c0.105-0.071,0.181-0.183,0.227-0.336c0.047-0.153,0.052-0.393,0.015-0.72
				C47.089,78.099,46.985,77.811,46.825,77.667"/>
		</defs>
		<clipPath id="SVGID_12_">
			<use xlink:href="#SVGID_11_"  style="overflow:visible;"/>
		</clipPath>
		<rect x="40.781" y="72.495" style="clip-path:url(#SVGID_12_);fill:#FFFFFF;" width="11.381" height="12.279"/>
	</g>
</g>
<g>
	<defs>
		<rect id="SVGID_13_" x="-470" y="-47" width="1024" height="6418"/>
	</defs>
	<clipPath id="SVGID_14_">
		<use xlink:href="#SVGID_13_"  style="overflow:visible;"/>
	</clipPath>
	<g style="clip-path:url(#SVGID_14_);">
		<defs>
			<path id="SVGID_15_" d="M71.597,21.43c0.232,0.016,0.533-0.111,0.905-0.382c0.313-0.228,0.495-0.458,0.547-0.689
				c0.052-0.231,0-0.455-0.158-0.671c-0.151-0.207-0.345-0.32-0.583-0.338c-0.238-0.019-0.526,0.096-0.864,0.342
				c-0.336,0.245-0.531,0.483-0.587,0.714c-0.055,0.232-0.005,0.454,0.151,0.669C71.169,21.295,71.366,21.414,71.597,21.43"/>
		</defs>
		<clipPath id="SVGID_16_">
			<use xlink:href="#SVGID_15_"  style="overflow:visible;"/>
		</clipPath>
		<rect x="65.835" y="14.348" style="clip-path:url(#SVGID_16_);fill:#FFFFFF;" width="12.233" height="12.083"/>
	</g>
</g>
<g>
	<defs>
		<rect id="SVGID_17_" x="-470" y="-47" width="1024" height="6418"/>
	</defs>
	<clipPath id="SVGID_18_">
		<use xlink:href="#SVGID_17_"  style="overflow:visible;"/>
	</clipPath>
	<g style="clip-path:url(#SVGID_18_);">
		<defs>
			<polyline id="SVGID_19_" points="65.693,12.441 64.423,13.319 65.13,13.88 65.693,12.441 			"/>
		</defs>
		<clipPath id="SVGID_20_">
			<use xlink:href="#SVGID_19_"  style="overflow:visible;"/>
		</clipPath>
		<rect x="59.423" y="7.441" style="clip-path:url(#SVGID_20_);fill:#FFFFFF;" width="11.27" height="11.439"/>
	</g>
</g>
<g>
	<defs>
		<rect id="SVGID_21_" x="-470" y="-47" width="1024" height="6418"/>
	</defs>
	<clipPath id="SVGID_22_">
		<use xlink:href="#SVGID_21_"  style="overflow:visible;"/>
	</clipPath>
	<g style="clip-path:url(#SVGID_22_);">
		<defs>
			<polyline id="SVGID_23_" points="50.321,78.449 51.2,78.244 50.423,76.908 50.321,78.449 			"/>
		</defs>
		<clipPath id="SVGID_24_">
			<use xlink:href="#SVGID_23_"  style="overflow:visible;"/>
		</clipPath>
		<rect x="45.321" y="71.908" style="clip-path:url(#SVGID_24_);fill:#FFFFFF;" width="10.879" height="11.541"/>
	</g>
</g>
<g>
	<defs>
		<rect id="SVGID_25_" x="-470" y="-47" width="1024" height="6418"/>
	</defs>
	<clipPath id="SVGID_26_">
		<use xlink:href="#SVGID_25_"  style="overflow:visible;"/>
	</clipPath>
	<g style="clip-path:url(#SVGID_26_);">
		<defs>
			<polyline id="SVGID_27_" points="10.235,61.195 11.282,60.058 9.78,60.416 10.235,61.195 			"/>
		</defs>
		<clipPath id="SVGID_28_">
			<use xlink:href="#SVGID_27_"  style="overflow:visible;"/>
		</clipPath>
		<rect x="4.78" y="55.058" style="clip-path:url(#SVGID_28_);fill:#FFFFFF;" width="11.502" height="11.137"/>
	</g>
</g>
<g>
	<defs>
		<rect id="SVGID_29_" x="-470" y="-47" width="1024" height="6418"/>
	</defs>
	<clipPath id="SVGID_30_">
		<use xlink:href="#SVGID_29_"  style="overflow:visible;"/>
	</clipPath>
	<g style="clip-path:url(#SVGID_30_);">
		<defs>
			<path id="SVGID_31_" d="M5.93,36.294c0.408,0.074,0.716,0.051,0.921-0.069c0.206-0.119,0.332-0.31,0.38-0.571
				c0.048-0.268-0.001-0.492-0.149-0.671c-0.148-0.179-0.449-0.309-0.901-0.391c-0.381-0.069-0.673-0.042-0.876,0.08
				c-0.203,0.122-0.329,0.314-0.376,0.577c-0.045,0.252,0.007,0.471,0.158,0.655C5.237,36.089,5.518,36.219,5.93,36.294"/>
		</defs>
		<clipPath id="SVGID_32_">
			<use xlink:href="#SVGID_31_"  style="overflow:visible;"/>
		</clipPath>
		<rect x="-0.088" y="29.555" style="clip-path:url(#SVGID_32_);fill:#FFFFFF;" width="12.337" height="11.781"/>
	</g>
</g>
<g>
	<defs>
		<rect id="SVGID_33_" x="-470" y="-47" width="1024" height="6418"/>
	</defs>
	<clipPath id="SVGID_34_">
		<use xlink:href="#SVGID_33_"  style="overflow:visible;"/>
	</clipPath>
	<g style="clip-path:url(#SVGID_34_);">
		<defs>
			<path id="SVGID_35_" d="M4.81,39.507c-0.129-0.007-0.24,0.031-0.334,0.112c-0.094,0.081-0.147,0.241-0.159,0.478l-0.018,0.361
				l0.916,0.046l0.016-0.311c0.012-0.245-0.021-0.418-0.101-0.522C5.049,39.568,4.942,39.513,4.81,39.507"/>
		</defs>
		<clipPath id="SVGID_36_">
			<use xlink:href="#SVGID_35_"  style="overflow:visible;"/>
		</clipPath>
		<rect x="-0.702" y="34.506" style="clip-path:url(#SVGID_36_);fill:#FFFFFF;" width="10.934" height="10.998"/>
	</g>
</g>
<g>
	<defs>
		<rect id="SVGID_37_" x="-470" y="-47" width="1024" height="6418"/>
	</defs>
	<clipPath id="SVGID_38_">
		<use xlink:href="#SVGID_37_"  style="overflow:visible;"/>
	</clipPath>
	<g style="clip-path:url(#SVGID_38_);">
		<defs>
			<path id="SVGID_39_" d="M13.858,63.73c0.02-0.123-0.04-0.279-0.182-0.469l-0.216-0.29l-0.735,0.548l0.186,0.25
				c0.146,0.196,0.283,0.309,0.411,0.337c0.127,0.029,0.244,0.003,0.351-0.076C13.776,63.953,13.838,63.853,13.858,63.73"/>
		</defs>
		<clipPath id="SVGID_40_">
			<use xlink:href="#SVGID_39_"  style="overflow:visible;"/>
		</clipPath>
		<rect x="7.725" y="57.971" style="clip-path:url(#SVGID_40_);fill:#FFFFFF;" width="11.137" height="11.146"/>
	</g>
</g>
<g>
	<defs>
		<rect id="SVGID_41_" x="-470" y="-47" width="1024" height="6418"/>
	</defs>
	<clipPath id="SVGID_42_">
		<use xlink:href="#SVGID_41_"  style="overflow:visible;"/>
	</clipPath>
	<g style="clip-path:url(#SVGID_42_);">
		<defs>
			<path id="SVGID_43_" d="M24.69,73.468c0.067-0.115,0.082-0.224,0.045-0.328c-0.037-0.103-0.155-0.214-0.356-0.331l-0.482-0.281
				l-0.421,0.722l0.463,0.27c0.05,0.029,0.156,0.07,0.319,0.121c0.081,0.028,0.162,0.025,0.243-0.008
				C24.582,73.601,24.645,73.546,24.69,73.468"/>
		</defs>
		<clipPath id="SVGID_44_">
			<use xlink:href="#SVGID_43_"  style="overflow:visible;"/>
		</clipPath>
		<rect x="18.477" y="67.529" style="clip-path:url(#SVGID_44_);fill:#FFFFFF;" width="11.278" height="11.132"/>
	</g>
</g>
<g>
	<defs>
		<rect id="SVGID_45_" x="-470" y="-47" width="1024" height="6418"/>
	</defs>
	<clipPath id="SVGID_46_">
		<use xlink:href="#SVGID_45_"  style="overflow:visible;"/>
	</clipPath>
	<g style="clip-path:url(#SVGID_46_);">
		<defs>
			<path id="SVGID_47_" d="M15.682,66.216c-0.238,0.012-0.51,0.161-0.814,0.449c-0.302,0.285-0.466,0.546-0.492,0.782
				c-0.026,0.237,0.052,0.452,0.234,0.645c0.187,0.199,0.397,0.291,0.629,0.278c0.232-0.013,0.515-0.178,0.849-0.493
				c0.281-0.266,0.433-0.517,0.456-0.752c0.023-0.236-0.058-0.451-0.241-0.646C16.127,66.292,15.92,66.204,15.682,66.216"/>
		</defs>
		<clipPath id="SVGID_48_">
			<use xlink:href="#SVGID_47_"  style="overflow:visible;"/>
		</clipPath>
		<rect x="9.371" y="61.215" style="clip-path:url(#SVGID_48_);fill:#FFFFFF;" width="12.177" height="12.156"/>
	</g>
</g>
<g>
	<defs>
		<rect id="SVGID_49_" x="-470" y="-47" width="1024" height="6418"/>
	</defs>
	<clipPath id="SVGID_50_">
		<use xlink:href="#SVGID_49_"  style="overflow:visible;"/>
	</clipPath>
	<g style="clip-path:url(#SVGID_50_);">
		<defs>
			<polyline id="SVGID_51_" points="27.765,76.413 27.94,74.877 26.938,76.053 27.765,76.413 			"/>
		</defs>
		<clipPath id="SVGID_52_">
			<use xlink:href="#SVGID_51_"  style="overflow:visible;"/>
		</clipPath>
		<rect x="21.938" y="69.877" style="clip-path:url(#SVGID_52_);fill:#FFFFFF;" width="11.002" height="11.536"/>
	</g>
</g>
<g>
	<defs>
		<rect id="SVGID_53_" x="-470" y="-47" width="1024" height="6418"/>
	</defs>
	<clipPath id="SVGID_54_">
		<use xlink:href="#SVGID_53_"  style="overflow:visible;"/>
	</clipPath>
	<g style="clip-path:url(#SVGID_54_);">
		<defs>
			<path id="SVGID_55_" d="M73.73,59.504c-0.115-0.067-0.224-0.081-0.328-0.044c-0.104,0.037-0.214,0.156-0.33,0.356l-0.28,0.483
				l0.723,0.419l0.269-0.463c0.029-0.05,0.069-0.156,0.12-0.319c0.028-0.081,0.025-0.162-0.008-0.243
				C73.863,59.612,73.808,59.549,73.73,59.504"/>
		</defs>
		<clipPath id="SVGID_56_">
			<use xlink:href="#SVGID_55_"  style="overflow:visible;"/>
		</clipPath>
		<rect x="67.793" y="54.44" style="clip-path:url(#SVGID_56_);fill:#FFFFFF;" width="11.131" height="11.278"/>
	</g>
</g>
<g>
	<defs>
		<rect id="SVGID_57_" x="-470" y="-47" width="1024" height="6418"/>
	</defs>
	<clipPath id="SVGID_58_">
		<use xlink:href="#SVGID_57_"  style="overflow:visible;"/>
	</clipPath>
	<g style="clip-path:url(#SVGID_58_);">
		<defs>
			<path id="SVGID_59_" d="M79.129,32.948l-0.893,0.209l0.071,0.303c0.056,0.238,0.136,0.396,0.242,0.473
				c0.105,0.077,0.223,0.1,0.352,0.07c0.126-0.029,0.222-0.096,0.29-0.2c0.068-0.104,0.075-0.272,0.02-0.503L79.129,32.948"/>
		</defs>
		<clipPath id="SVGID_60_">
			<use xlink:href="#SVGID_59_"  style="overflow:visible;"/>
		</clipPath>
		<rect x="73.236" y="27.948" style="clip-path:url(#SVGID_60_);fill:#FFFFFF;" width="11.011" height="11.068"/>
	</g>
</g>
<g>
	<defs>
		<rect id="SVGID_61_" x="-470" y="-47" width="1024" height="6418"/>
	</defs>
	<clipPath id="SVGID_62_">
		<use xlink:href="#SVGID_61_"  style="overflow:visible;"/>
	</clipPath>
	<g style="clip-path:url(#SVGID_62_);">
		<defs>
			<path id="SVGID_63_" d="M78.136,50.33c-1.149,0-2.081-0.932-2.081-2.081c0-1.149,0.931-2.08,2.081-2.08
				c1.149,0,2.08,0.931,2.08,2.08C80.217,49.399,79.285,50.33,78.136,50.33z M78.034,57.391c-0.184,0.426-0.403,0.749-0.659,0.969
				c-0.256,0.22-0.568,0.354-0.936,0.401c-0.368,0.047-0.773-0.025-1.214-0.215c-0.616-0.266-1.022-0.644-1.217-1.136
				c-0.195-0.491-0.161-1.043,0.104-1.656c0.271-0.628,0.648-1.04,1.132-1.234c0.484-0.194,1.03-0.161,1.637,0.101
				c0.441,0.19,0.771,0.421,0.989,0.691c0.218,0.27,0.345,0.58,0.381,0.928C78.287,56.588,78.214,56.972,78.034,57.391z
				 M76.299,60.793l-1.427-0.043c-0.184-0.007-0.313,0.006-0.389,0.04c-0.101,0.047-0.181,0.121-0.239,0.221l-0.056,0.097
				l1.443,0.837l-0.64,1.104l-3.556-2.062l1.062-1.831c0.197-0.34,0.377-0.582,0.539-0.728c0.162-0.146,0.354-0.228,0.576-0.247
				c0.221-0.018,0.445,0.038,0.672,0.169c0.197,0.114,0.343,0.255,0.437,0.422c0.094,0.167,0.143,0.35,0.147,0.549
				c0.002,0.127-0.026,0.283-0.083,0.467c0.12-0.105,0.219-0.175,0.297-0.21c0.053-0.023,0.149-0.046,0.289-0.067
				c0.14-0.022,0.243-0.03,0.31-0.026l1.339,0.065L76.299,60.793z M73.849,64.561c-0.075,0.252-0.217,0.516-0.425,0.792
				c-0.12,0.16-0.263,0.325-0.428,0.497c-0.165,0.172-0.328,0.297-0.49,0.373c-0.162,0.077-0.344,0.122-0.546,0.135
				c-0.202,0.013-0.382-0.01-0.541-0.069c-0.256-0.095-0.465-0.203-0.626-0.324l-1.956-1.474l0.763-1.012l2.002,1.509
				c0.179,0.135,0.356,0.191,0.532,0.167c0.175-0.023,0.33-0.123,0.462-0.299c0.132-0.175,0.185-0.349,0.161-0.523
				c-0.025-0.174-0.128-0.33-0.31-0.467l-2.002-1.509l0.763-1.012l1.956,1.474c0.194,0.146,0.354,0.314,0.481,0.505
				c0.127,0.19,0.206,0.399,0.238,0.625C73.915,64.176,73.904,64.379,73.849,64.561z M70.85,68.089
				c-0.09,0.339-0.293,0.672-0.611,0.999c-0.323,0.333-0.643,0.557-0.96,0.672c-0.317,0.116-0.657,0.13-1.017,0.043
				c-0.361-0.087-0.714-0.298-1.059-0.632c-0.482-0.467-0.727-0.965-0.735-1.494c-0.008-0.529,0.22-1.033,0.684-1.512
				c0.476-0.491,0.975-0.742,1.496-0.752c0.521-0.01,1.019,0.215,1.495,0.676c0.345,0.334,0.572,0.666,0.68,0.997
				C70.931,67.416,70.94,67.751,70.85,68.089z M63.939,74.32l-2.438-3.31l2.741-2.019l0.52,0.707l-1.716,1.264l0.388,0.526
				l1.592-1.172l0.497,0.675l-1.592,1.172l0.48,0.653l1.766-1.3l0.552,0.75L63.939,74.32z M62.635,74.633
				c-0.072,0.23-0.183,0.42-0.332,0.569c-0.204,0.204-0.404,0.362-0.6,0.475l-1.635,0.942l-2.052-3.561l1.635-0.942
				c0.323-0.186,0.608-0.292,0.857-0.319c0.249-0.027,0.485,0.004,0.709,0.093c0.224,0.089,0.428,0.225,0.611,0.409
				c0.183,0.183,0.345,0.396,0.485,0.639c0.219,0.381,0.346,0.701,0.38,0.96C62.726,74.158,62.707,74.403,62.635,74.633z
				 M57.062,77.038c-0.046,0.344-0.183,0.649-0.412,0.915c-0.228,0.266-0.557,0.477-0.985,0.634
				c-0.435,0.159-0.821,0.222-1.157,0.187c-0.336-0.034-0.647-0.169-0.935-0.404c-0.287-0.235-0.513-0.579-0.678-1.03
				c-0.231-0.63-0.235-1.185-0.012-1.665c0.223-0.479,0.647-0.834,1.274-1.063c0.642-0.235,1.201-0.244,1.674-0.026
				c0.474,0.218,0.824,0.638,1.052,1.259C57.049,76.295,57.108,76.693,57.062,77.038z M52.014,79.664l-0.355-0.614l-1.404,0.328
				l-0.041,0.706l-1.263,0.295l0.57-4.354l1.349-0.315l2.439,3.652L52.014,79.664z M48.368,79.396
				c-0.072,0.252-0.187,0.469-0.345,0.651c-0.158,0.183-0.335,0.312-0.532,0.389c-0.268,0.106-0.515,0.171-0.74,0.197l-1.875,0.212
				l-0.462-4.084l1.875-0.212c0.37-0.042,0.674-0.026,0.913,0.049c0.239,0.075,0.443,0.197,0.613,0.368
				c0.17,0.171,0.302,0.377,0.397,0.618c0.095,0.241,0.158,0.501,0.19,0.78C48.452,78.8,48.441,79.144,48.368,79.396z
				 M42.957,80.904l-0.659-1.267c-0.083-0.164-0.158-0.271-0.225-0.321c-0.091-0.065-0.194-0.098-0.31-0.1l-0.112-0.002
				l-0.027,1.668l-1.276-0.021l0.067-4.11l2.117,0.034c0.392,0.006,0.692,0.045,0.898,0.116c0.206,0.071,0.372,0.198,0.496,0.382
				c0.124,0.184,0.184,0.407,0.18,0.669c-0.004,0.228-0.056,0.424-0.155,0.588c-0.1,0.164-0.236,0.296-0.408,0.396
				c-0.11,0.064-0.259,0.115-0.449,0.155c0.151,0.053,0.26,0.105,0.328,0.157c0.046,0.034,0.112,0.107,0.199,0.219
				c0.087,0.112,0.145,0.198,0.174,0.258l0.596,1.201L42.957,80.904z M39.841,78.789c-0.058,0.477-0.187,0.858-0.384,1.144
				c-0.198,0.285-0.459,0.495-0.783,0.627c-0.324,0.133-0.713,0.171-1.165,0.116c-0.46-0.056-0.832-0.176-1.116-0.36
				c-0.284-0.183-0.5-0.445-0.648-0.785c-0.149-0.34-0.194-0.749-0.135-1.226c0.081-0.666,0.33-1.162,0.747-1.488
				c0.416-0.326,0.956-0.448,1.618-0.367c0.679,0.083,1.18,0.329,1.503,0.739C39.8,77.599,39.921,78.132,39.841,78.789z
				 M32.678,78.535c0.094,0.197,0.262,0.326,0.505,0.386c0.236,0.058,0.431,0.036,0.584-0.066c0.154-0.102,0.289-0.273,0.406-0.512
				l1,0.594c-0.148,0.285-0.325,0.51-0.531,0.674c-0.206,0.164-0.438,0.27-0.695,0.316c-0.257,0.046-0.564,0.025-0.921-0.064
				c-0.434-0.107-0.772-0.258-1.016-0.452c-0.244-0.194-0.426-0.474-0.547-0.841c-0.121-0.367-0.12-0.798,0.002-1.293
				c0.163-0.66,0.465-1.124,0.904-1.391c0.439-0.268,0.979-0.322,1.622-0.163c0.503,0.124,0.873,0.324,1.11,0.598
				c0.237,0.274,0.374,0.64,0.409,1.095l-1.149-0.027c-0.008-0.131-0.026-0.23-0.054-0.296c-0.045-0.111-0.112-0.205-0.199-0.28
				c-0.087-0.076-0.193-0.129-0.316-0.159c-0.279-0.069-0.521-0.01-0.726,0.178c-0.154,0.139-0.275,0.387-0.363,0.744
				C32.592,78.018,32.584,78.337,32.678,78.535z M28.788,78.569l-1.219-0.531l0.083-0.704l-1.322-0.576l-0.455,0.542l-1.189-0.518
				l3.059-3.151l1.27,0.554L28.788,78.569z M23.397,76.034l0.046-1.427c0.008-0.184-0.005-0.314-0.039-0.389
				c-0.047-0.101-0.121-0.181-0.221-0.239l-0.097-0.057l-0.84,1.441l-1.102-0.643l2.07-3.551l1.829,1.066
				c0.339,0.198,0.581,0.378,0.727,0.54c0.145,0.163,0.227,0.355,0.245,0.576c0.018,0.221-0.039,0.445-0.171,0.671
				c-0.115,0.197-0.256,0.342-0.423,0.436c-0.167,0.094-0.35,0.142-0.549,0.146c-0.127,0.002-0.282-0.026-0.467-0.084
				c0.105,0.12,0.175,0.219,0.209,0.297c0.023,0.053,0.046,0.149,0.067,0.289c0.021,0.14,0.029,0.244,0.025,0.31l-0.068,1.339
				L23.397,76.034z M19.303,73.41l2.373-3.357l1.04,0.735l-2.373,3.357L19.303,73.41z M18.646,72.964l-2.654-2.229l2.643-3.148
				l2.607,2.189l-0.564,0.672l-1.632-1.37l-0.42,0.5l1.514,1.271L19.6,71.492l-1.514-1.271l-0.521,0.62l1.679,1.41L18.646,72.964z
				 M14.919,69.429c-0.334-0.105-0.658-0.323-0.971-0.655c-0.318-0.337-0.528-0.667-0.629-0.989c-0.101-0.322-0.1-0.662,0.003-1.019
				c0.103-0.357,0.329-0.7,0.678-1.03c0.488-0.461,0.996-0.683,1.525-0.668c0.528,0.015,1.022,0.266,1.48,0.751
				c0.47,0.498,0.698,1.007,0.685,1.528c-0.013,0.521-0.26,1.009-0.742,1.463c-0.349,0.33-0.691,0.541-1.026,0.635
				C15.587,69.539,15.253,69.534,14.919,69.429z M12.473,64.575l-0.416-0.557l-1.223,0.912l-0.763-1.022l3.295-2.457l1.262,1.692
				c0.275,0.369,0.393,0.71,0.355,1.024c-0.038,0.314-0.219,0.592-0.543,0.833c-0.333,0.248-0.667,0.342-1.004,0.282
				C13.101,65.221,12.779,64.985,12.473,64.575z M9.118,62.391l0.482-0.52l-0.727-1.245l-0.687,0.169l-0.654-1.12l4.329-0.739
				l0.699,1.196l-2.77,3.407L9.118,62.391z M6.612,57.756c-0.179-0.409-0.266-0.77-0.26-1.081c0.006-0.311,0.117-0.627,0.334-0.946
				c0.217-0.319,0.56-0.581,1.027-0.785c0.623-0.272,1.174-0.316,1.654-0.13c0.479,0.185,0.852,0.581,1.117,1.187
				c0.207,0.474,0.274,0.889,0.201,1.245c-0.073,0.355-0.28,0.686-0.62,0.991l-0.678-0.928c0.099-0.086,0.167-0.16,0.202-0.223
				c0.061-0.104,0.094-0.213,0.101-0.329c0.007-0.115-0.015-0.231-0.066-0.348c-0.115-0.264-0.31-0.42-0.583-0.467
				c-0.204-0.038-0.474,0.017-0.811,0.165c-0.417,0.182-0.676,0.371-0.775,0.565c-0.099,0.194-0.099,0.406,0.001,0.636
				c0.097,0.223,0.233,0.363,0.408,0.423c0.175,0.059,0.393,0.062,0.653,0.01l0.137,1.155c-0.316,0.056-0.602,0.053-0.858-0.011
				c-0.256-0.063-0.481-0.183-0.674-0.359C6.93,58.35,6.759,58.094,6.612,57.756z M4.016,48.263c0-1.149,0.931-2.08,2.081-2.08
				c1.149,0,2.08,0.931,2.08,2.08c0,1.149-0.931,2.081-2.08,2.081C4.948,50.344,4.016,49.412,4.016,48.263z M3.506,39.581
				c0.023-0.459,0.15-0.798,0.38-1.015c0.23-0.218,0.547-0.316,0.95-0.296c0.414,0.021,0.732,0.162,0.953,0.423
				c0.221,0.261,0.318,0.647,0.292,1.159l-0.035,0.695l1.523,0.077l-0.064,1.274L3.4,41.69L3.506,39.581z M3.982,35.075
				c0.122-0.673,0.396-1.159,0.823-1.458c0.427-0.299,0.966-0.39,1.618-0.272c0.473,0.085,0.846,0.235,1.12,0.449
				c0.274,0.214,0.468,0.486,0.582,0.817c0.114,0.331,0.13,0.721,0.049,1.17c-0.083,0.456-0.223,0.821-0.423,1.093
				c-0.199,0.273-0.473,0.473-0.821,0.602c-0.348,0.129-0.759,0.151-1.231,0.065c-0.66-0.119-1.141-0.396-1.443-0.831
				C3.955,36.278,3.864,35.732,3.982,35.075z M5.281,29.928c0.159-0.493,0.384-0.848,0.675-1.065
				c0.29-0.217,0.664-0.328,1.121-0.331l-0.108,1.144c-0.131-0.001-0.231,0.01-0.299,0.033c-0.114,0.038-0.212,0.097-0.294,0.179
				c-0.081,0.082-0.142,0.183-0.181,0.304c-0.089,0.274-0.046,0.519,0.127,0.737c0.128,0.163,0.367,0.301,0.717,0.414
				c0.433,0.14,0.752,0.171,0.955,0.091c0.203-0.079,0.344-0.238,0.421-0.477c0.075-0.231,0.066-0.427-0.025-0.587
				c-0.091-0.16-0.252-0.307-0.482-0.44l0.663-0.955c0.274,0.167,0.486,0.36,0.636,0.577c0.15,0.217,0.239,0.456,0.266,0.715
				c0.028,0.26-0.015,0.565-0.128,0.915c-0.138,0.425-0.312,0.752-0.522,0.982c-0.211,0.229-0.503,0.392-0.878,0.487
				c-0.374,0.095-0.804,0.064-1.289-0.093c-0.647-0.209-1.088-0.543-1.325-0.999C5.093,31.101,5.077,30.558,5.281,29.928z
				 M7.141,25.282c0.222-0.468,0.491-0.791,0.807-0.969c0.316-0.178,0.701-0.239,1.154-0.184l-0.255,1.12
				c-0.13-0.018-0.23-0.02-0.301-0.006c-0.118,0.023-0.223,0.069-0.314,0.14c-0.091,0.071-0.164,0.163-0.219,0.278
				c-0.123,0.26-0.113,0.509,0.03,0.747c0.106,0.178,0.325,0.346,0.657,0.504c0.412,0.195,0.724,0.266,0.935,0.214
				c0.212-0.053,0.372-0.192,0.479-0.418c0.104-0.22,0.121-0.415,0.051-0.586c-0.07-0.171-0.21-0.337-0.421-0.499l0.781-0.862
				c0.25,0.201,0.435,0.419,0.556,0.654c0.12,0.235,0.178,0.483,0.172,0.744c-0.006,0.261-0.088,0.558-0.245,0.891
				c-0.191,0.404-0.406,0.706-0.645,0.906c-0.239,0.2-0.55,0.323-0.933,0.369c-0.384,0.046-0.806-0.04-1.266-0.259
				c-0.614-0.291-1.009-0.678-1.184-1.162C6.804,26.421,6.858,25.88,7.141,25.282z M9.257,21.548l1.907,1.239l-1.065-2.535
				l0.647-0.996l3.447,2.239l-0.651,1.002l-1.893-1.23l1.055,2.519l-0.653,1.005l-3.447-2.239L9.257,21.548z M11.795,16.348
				c0.228,0.094,0.428,0.041,0.599-0.156c0.184-0.212,0.212-0.423,0.085-0.634l0.319-0.369c0.152,0.184,0.222,0.394,0.208,0.631
				c-0.013,0.237-0.105,0.453-0.275,0.65c-0.169,0.195-0.37,0.316-0.604,0.364c-0.234,0.047-0.451,0.009-0.653-0.116L11.795,16.348z
				 M14.173,15.147l3.108,2.69L16.5,18.74l-1.706-1.477l0.7,2.64l-0.784,0.906l-3.108-2.69l0.783-0.905l1.719,1.488l-0.708-2.657
				L14.173,15.147z M16.562,12.827c0.388-0.343,0.762-0.535,1.122-0.575c0.361-0.04,0.739,0.055,1.134,0.284l-0.674,0.931
				c-0.112-0.068-0.204-0.109-0.275-0.124c-0.118-0.026-0.232-0.024-0.344,0.005c-0.111,0.029-0.215,0.086-0.31,0.17
				c-0.216,0.191-0.304,0.424-0.265,0.699c0.027,0.205,0.163,0.446,0.407,0.721c0.302,0.341,0.561,0.529,0.776,0.564
				c0.215,0.035,0.417-0.031,0.605-0.197c0.182-0.161,0.274-0.334,0.277-0.518c0.003-0.185-0.061-0.393-0.192-0.625l1.056-0.486
				c0.151,0.283,0.236,0.557,0.254,0.82c0.019,0.263-0.026,0.514-0.134,0.752c-0.108,0.238-0.299,0.479-0.575,0.723
				c-0.334,0.296-0.651,0.49-0.949,0.58c-0.298,0.09-0.632,0.082-1.003-0.027c-0.371-0.108-0.725-0.353-1.063-0.735
				c-0.451-0.509-0.662-1.02-0.633-1.533C15.804,13.742,16.066,13.266,16.562,12.827z M19.994,10.214l0.892,1.302
				c0.088-0.067,0.137-0.148,0.146-0.243c0.01-0.095-0.029-0.322-0.117-0.681c-0.066-0.265-0.09-0.471-0.073-0.618
				c0.017-0.147,0.103-0.302,0.255-0.465c0.153-0.164,0.422-0.378,0.808-0.642l0.491,0.717L22.344,9.62
				c-0.179,0.123-0.288,0.247-0.328,0.374c-0.04,0.127-0.036,0.285,0.013,0.475c0.048,0.19,0.066,0.344,0.054,0.463
				c-0.013,0.119-0.059,0.238-0.14,0.359c0.185-0.054,0.375-0.059,0.571-0.015c0.196,0.044,0.444,0.15,0.746,0.32l1.096,0.612
				l-1.18,0.808l-1.009-0.596c-0.239-0.141-0.402-0.219-0.492-0.233c-0.089-0.015-0.181,0.01-0.277,0.075l0.919,1.342l-1.046,0.716
				l-2.323-3.391L19.994,10.214z M23.957,7.771l1.032,2.026l0.345-2.728l1.059-0.539l1.866,3.662l-1.064,0.542L26.17,8.723
				l-0.345,2.709l-1.068,0.544l-1.866-3.663L23.957,7.771z M28.839,5.579l0.742,2.149L30.3,5.074l1.123-0.388l1.342,3.885
				l-1.129,0.39l-0.737-2.134l-0.717,2.636l-1.133,0.391L27.707,5.97L28.839,5.579z M28.763,4.535
				c0.15,0.195,0.349,0.25,0.597,0.165c0.265-0.092,0.395-0.26,0.392-0.506l0.461-0.159c0.04,0.235-0.005,0.452-0.136,0.651
				c-0.13,0.198-0.318,0.34-0.564,0.425c-0.244,0.084-0.479,0.088-0.705,0.012c-0.226-0.076-0.395-0.219-0.507-0.427L28.763,4.535z
				 M36.166,3.675l0.421,3.073l1.383-0.189L37.55,3.486l1.256-0.172l0.429,3.134l0.439-0.06l0.25,1.825l-1.011,0.138l-0.121-0.886
				l-3.322,0.455l-0.558-4.072L36.166,3.675z M43.7,3.182l0.014,0.878l-2.131,0.034l0.011,0.653l1.977-0.032l0.013,0.838
				l-1.977,0.032l0.013,0.81l2.192-0.036l0.015,0.931l-3.465,0.056l-0.066-4.11L43.7,3.182z M45.017,3.257l1.261,0.153l-0.174,1.428
				l1.378,0.167l0.173-1.428l1.266,0.154l-0.496,4.081L47.16,7.658l0.201-1.65L45.983,5.84l-0.2,1.651l-1.261-0.153L45.017,3.257z
				 M49.993,3.934l3.741,0.956l-0.251,0.983l-1.255-0.321l-0.766,2.999l-1.231-0.314l0.766-2.999l-1.255-0.321L49.993,3.934z
				 M56.718,5.996c0.429,0.167,0.71,0.393,0.844,0.68c0.134,0.287,0.128,0.618-0.018,0.995c-0.15,0.387-0.384,0.644-0.701,0.771
				c-0.317,0.127-0.714,0.098-1.192-0.087l-0.648-0.252L54.45,9.525l-1.189-0.462l1.489-3.832L56.718,5.996z M60.958,7.971
				l1.083,0.659l-0.821,1.349c0.097,0.052,0.191,0.064,0.282,0.033c0.091-0.03,0.282-0.159,0.573-0.386
				c0.215-0.169,0.392-0.276,0.533-0.321c0.141-0.045,0.317-0.031,0.529,0.041c0.212,0.072,0.518,0.23,0.917,0.473l-0.452,0.743
				l-0.055-0.034c-0.185-0.113-0.344-0.161-0.476-0.145c-0.132,0.016-0.275,0.085-0.428,0.207c-0.153,0.122-0.286,0.202-0.4,0.239
				c-0.113,0.037-0.242,0.044-0.385,0.02c0.125,0.146,0.208,0.317,0.248,0.514c0.04,0.196,0.045,0.467,0.015,0.812l-0.108,1.251
				l-1.222-0.744l0.129-1.164c0.03-0.275,0.034-0.457,0.011-0.544c-0.023-0.087-0.084-0.161-0.182-0.221l-0.845,1.389l-1.083-0.659
				L60.958,7.971z M66.91,12.047l-1.346,4.18L64.522,15.4l0.261-0.659l-1.129-0.897l-0.579,0.407l-1.016-0.806l3.766-2.259
				L66.91,12.047z M71.545,16.494l-2.959,2.854l-0.88-0.912l2.232-2.153l-0.969-1.005l-2.232,2.153l-0.88-0.912l2.959-2.854
				L71.545,16.494z M72.297,18.192c0.522,0.082,0.98,0.392,1.373,0.931c0.403,0.553,0.565,1.087,0.487,1.602
				c-0.079,0.516-0.385,0.968-0.92,1.358c-0.388,0.283-0.754,0.45-1.098,0.5c-0.344,0.051-0.675,0.003-0.993-0.143
				c-0.318-0.146-0.612-0.404-0.881-0.772c-0.273-0.375-0.44-0.728-0.499-1.061c-0.06-0.332-0.016-0.669,0.131-1.01
				c0.147-0.341,0.415-0.653,0.803-0.936C71.242,18.267,71.774,18.11,72.297,18.192z M42.052,73.722
				c-17.534,0-31.749-14.215-31.749-31.751c0-17.536,14.214-31.751,31.749-31.751c17.535,0,31.749,14.216,31.749,31.751
				C73.801,59.507,59.587,73.722,42.052,73.722z M49.573,75.756l-0.426,0.099c-0.012-0.043-0.022-0.081-0.03-0.114
				c-0.045-0.195-0.028-0.362,0.053-0.502c0.081-0.14,0.194-0.227,0.342-0.261c0.064-0.015,0.125-0.022,0.185-0.02
				c0.06,0.001,0.173,0.016,0.34,0.044c0.167,0.028,0.285,0.034,0.354,0.018c0.049-0.012,0.085-0.038,0.107-0.078
				c0.022-0.041,0.025-0.106,0.007-0.196l0.432-0.101c0.013,0.047,0.023,0.088,0.031,0.122c0.047,0.202,0.033,0.371-0.043,0.506
				c-0.076,0.135-0.194,0.221-0.354,0.258c-0.117,0.027-0.304,0.02-0.563-0.021c-0.157-0.025-0.263-0.031-0.318-0.018
				c-0.053,0.012-0.09,0.038-0.111,0.078C49.557,75.61,49.556,75.672,49.573,75.756z M76.413,23.455
				c0.326,0.604,0.416,1.155,0.269,1.654c-0.147,0.499-0.513,0.907-1.099,1.223c-0.61,0.33-1.165,0.422-1.665,0.278
				c-0.5-0.144-0.906-0.507-1.22-1.087c-0.283-0.523-0.397-0.981-0.342-1.374c0.054-0.393,0.216-0.734,0.484-1.023l0.851,0.898
				c-0.316,0.303-0.376,0.637-0.178,1.004c0.231,0.427,0.594,0.547,1.089,0.358l-0.589-1.09l0.671-0.362l0.592,1.095
				c0.427-0.322,0.526-0.696,0.297-1.12c-0.179-0.33-0.449-0.469-0.811-0.416l-0.161-1.213
				C75.371,22.251,75.974,22.643,76.413,23.455z M78.304,27.627l-2.128,0.801l2.673,0.646l0.419,1.112l-3.847,1.448L75,30.515
				l2.113-0.795l-2.654-0.644l-0.422-1.122l3.847-1.448L78.304,27.627z M78.761,27.583c0.07-0.228,0.208-0.401,0.413-0.518
				l0.172,0.457c-0.191,0.156-0.241,0.356-0.148,0.601c0.099,0.262,0.271,0.388,0.517,0.378l0.172,0.457
				c-0.234,0.046-0.452,0.007-0.654-0.118c-0.202-0.125-0.348-0.309-0.44-0.552C78.702,28.046,78.692,27.811,78.761,27.583z
				 M80.05,34.652c-0.161,0.273-0.438,0.455-0.831,0.548c-0.404,0.095-0.748,0.047-1.033-0.142c-0.285-0.19-0.485-0.534-0.602-1.032
				l-0.159-0.677l-1.485,0.348l-0.291-1.242l4.002-0.938l0.482,2.056C80.238,34.019,80.21,34.379,80.05,34.652z M80.812,37.445
				l-1.579,0.128l0.055,0.676c0.05,0.62-0.022,1.089-0.217,1.407c-0.194,0.318-0.523,0.495-0.985,0.532
				c-0.378,0.031-0.678-0.083-0.901-0.342c-0.222-0.259-0.355-0.645-0.396-1.159l-0.176-2.174l4.097-0.331L80.812,37.445z
				 M81.143,41.531l-4.097,0.331l-0.102-1.269l4.097-0.331L81.143,41.531z M42.052,0.105c-23.149,0-41.914,18.766-41.914,41.915
				c0,23.149,18.766,41.914,41.914,41.914c23.149,0,41.914-18.766,41.914-41.914C83.966,18.871,65.201,0.105,42.052,0.105z"/>
		</defs>
		<clipPath id="SVGID_64_">
			<use xlink:href="#SVGID_63_"  style="overflow:visible;"/>
		</clipPath>
		<rect x="-4.862" y="-4.895" style="clip-path:url(#SVGID_64_);fill:#FFFFFF;" width="93.829" height="93.829"/>
	</g>
</g>
<g>
	<defs>
		<rect id="SVGID_65_" x="-470" y="-47" width="1024" height="6418"/>
	</defs>
	<clipPath id="SVGID_66_">
		<use xlink:href="#SVGID_65_"  style="overflow:visible;"/>
	</clipPath>
	<g style="clip-path:url(#SVGID_66_);">
		<defs>
			<path id="SVGID_67_" d="M56.121,7.508c0.123-0.043,0.209-0.127,0.257-0.251c0.047-0.12,0.046-0.238-0.001-0.353
				c-0.048-0.115-0.182-0.215-0.403-0.301l-0.337-0.131l-0.332,0.855l0.29,0.113C55.822,7.529,55.998,7.551,56.121,7.508"/>
		</defs>
		<clipPath id="SVGID_68_">
			<use xlink:href="#SVGID_67_"  style="overflow:visible;"/>
		</clipPath>
		<rect x="50.304" y="1.473" style="clip-path:url(#SVGID_68_);fill:#FFFFFF;" width="11.109" height="11.057"/>
	</g>
</g>
<g>
	<defs>
		<rect id="SVGID_69_" x="-470" y="-47" width="1024" height="6418"/>
	</defs>
	<clipPath id="SVGID_70_">
		<use xlink:href="#SVGID_69_"  style="overflow:visible;"/>
	</clipPath>
	<g style="clip-path:url(#SVGID_70_);">
		<defs>
			<path id="SVGID_71_" d="M76.362,55.781c-0.355-0.153-0.646-0.194-0.872-0.121c-0.226,0.072-0.392,0.231-0.497,0.477
				c-0.102,0.235-0.1,0.46,0.005,0.674c0.105,0.214,0.35,0.404,0.734,0.57c0.381,0.164,0.685,0.211,0.913,0.142
				c0.228-0.07,0.394-0.226,0.499-0.47c0.108-0.251,0.11-0.48,0.006-0.687C77.047,56.158,76.784,55.963,76.362,55.781"/>
		</defs>
		<clipPath id="SVGID_72_">
			<use xlink:href="#SVGID_71_"  style="overflow:visible;"/>
		</clipPath>
		<rect x="69.918" y="50.625" style="clip-path:url(#SVGID_72_);fill:#FFFFFF;" width="12.309" height="11.929"/>
	</g>
</g>
<g>
	<defs>
		<rect id="SVGID_73_" x="-470" y="-47" width="1024" height="6418"/>
	</defs>
	<clipPath id="SVGID_74_">
		<use xlink:href="#SVGID_73_"  style="overflow:visible;"/>
	</clipPath>
	<g style="clip-path:url(#SVGID_74_);">
		<defs>
			<path id="SVGID_75_" d="M69.247,66.99c-0.278-0.269-0.535-0.41-0.772-0.422c-0.237-0.012-0.448,0.078-0.634,0.27
				c-0.178,0.184-0.256,0.394-0.234,0.632c0.022,0.238,0.184,0.502,0.484,0.793c0.298,0.289,0.566,0.441,0.803,0.457
				c0.238,0.015,0.449-0.072,0.633-0.263c0.19-0.196,0.273-0.409,0.25-0.64C69.753,67.586,69.577,67.31,69.247,66.99"/>
		</defs>
		<clipPath id="SVGID_76_">
			<use xlink:href="#SVGID_75_"  style="overflow:visible;"/>
		</clipPath>
		<rect x="62.602" y="61.567" style="clip-path:url(#SVGID_76_);fill:#FFFFFF;" width="12.178" height="12.155"/>
	</g>
</g>
<g>
	<defs>
		<rect id="SVGID_77_" x="-470" y="-47" width="1024" height="6418"/>
	</defs>
	<clipPath id="SVGID_78_">
		<use xlink:href="#SVGID_77_"  style="overflow:visible;"/>
	</clipPath>
	<g style="clip-path:url(#SVGID_78_);">
		<defs>
			<path id="SVGID_79_" d="M78.127,38.914c0.252-0.02,0.361-0.229,0.329-0.626l-0.052-0.648l-0.808,0.065l0.052,0.648
				C77.68,38.75,77.84,38.937,78.127,38.914"/>
		</defs>
		<clipPath id="SVGID_80_">
			<use xlink:href="#SVGID_79_"  style="overflow:visible;"/>
		</clipPath>
		<rect x="72.596" y="32.639" style="clip-path:url(#SVGID_80_);fill:#FFFFFF;" width="10.866" height="11.276"/>
	</g>
</g>
<g>
	<defs>
		<rect id="SVGID_81_" x="-470" y="-47" width="1024" height="6418"/>
	</defs>
	<clipPath id="SVGID_82_">
		<use xlink:href="#SVGID_81_"  style="overflow:visible;"/>
	</clipPath>
	<g style="clip-path:url(#SVGID_82_);">
		<defs>
			<path id="SVGID_83_" d="M61.219,73.597c-0.217-0.377-0.428-0.6-0.631-0.669c-0.203-0.068-0.448-0.02-0.733,0.144l-0.274,0.158
				l1.121,1.946l0.27-0.155c0.23-0.133,0.379-0.252,0.447-0.36c0.068-0.107,0.093-0.24,0.074-0.399
				C61.475,74.104,61.383,73.882,61.219,73.597"/>
		</defs>
		<clipPath id="SVGID_84_">
			<use xlink:href="#SVGID_83_"  style="overflow:visible;"/>
		</clipPath>
		<rect x="54.581" y="67.898" style="clip-path:url(#SVGID_84_);fill:#FFFFFF;" width="11.918" height="12.278"/>
	</g>
</g>
<g>
	<defs>
		<rect id="SVGID_85_" x="-470" y="-47" width="1024" height="6418"/>
	</defs>
	<clipPath id="SVGID_86_">
		<use xlink:href="#SVGID_85_"  style="overflow:visible;"/>
	</clipPath>
	<g style="clip-path:url(#SVGID_86_);">
		<defs>
			<path id="SVGID_87_" d="M55.174,75.549c-0.208-0.114-0.437-0.125-0.688-0.033c-0.241,0.088-0.402,0.244-0.486,0.468
				c-0.084,0.224-0.053,0.532,0.09,0.925c0.143,0.39,0.318,0.643,0.525,0.761c0.207,0.117,0.435,0.13,0.685,0.039
				c0.256-0.094,0.424-0.25,0.504-0.468c0.08-0.218,0.04-0.543-0.118-0.975C55.552,75.902,55.382,75.663,55.174,75.549"/>
		</defs>
		<clipPath id="SVGID_88_">
			<use xlink:href="#SVGID_87_"  style="overflow:visible;"/>
		</clipPath>
		<rect x="48.954" y="70.454" style="clip-path:url(#SVGID_88_);fill:#FFFFFF;" width="11.889" height="12.314"/>
	</g>
</g>
<g>
	<defs>
		<rect id="SVGID_89_" x="-470" y="-47" width="1024" height="6418"/>
	</defs>
	<clipPath id="SVGID_90_">
		<use xlink:href="#SVGID_89_"  style="overflow:visible;"/>
	</clipPath>
	<g style="clip-path:url(#SVGID_90_);">
		<defs>
			<path id="SVGID_91_" d="M67.131,39.486c0.231,1.095,1.323,1.193,1.574,1.756l0.606,1.359c0.135,0.302,0.541,0.293,0.369-0.144
				l-0.462-1.172c-0.082-0.208,0.109-0.353,0.322-0.158l1.154,1.056c0.457,0.418,0.752,0.098,0.373-0.259l-1.104-1.039
				c-0.219-0.206-0.058-0.309,0.258-0.214c0.445,0.134,1.194,0.411,1.646,0.57c0.401,0.141,0.596-0.381,0.11-0.474
				c-0.298-0.1-1.253-0.403-1.494-0.52c-0.282-0.136-0.226-0.373,0.17-0.388l1.262-0.049c0.422,0.058,0.456-0.456-0.024-0.454
				l-1.619,0.004c-0.959,0.002-1.379-0.665-0.764-0.783c0.317-0.061,0.661-0.271,0.726-0.435c0.062-0.156-0.072-0.249-0.218-0.2
				c-0.296,0.101-0.596,0.254-1.025,0.264c-0.889,0.019-0.644,0.14-1.052-0.319c-0.62-0.698-1.744-2.777-1.988-3.092
				c-0.084-0.108-0.136-0.184-0.164-0.345c-0.211-1.226-0.845-2.902-0.873-3.666c-0.023-0.641,0.648-2.259-1.624-3.197
				c-1.032-0.426-1.61-1.17-1.743-2.138c0.109,0.063,1.008,0.083,1.169-0.588c-0.593,0.181-0.718-0.252-0.649-1.697
				c0.193-4.054-5.174-4.075-6.262-1.405c-0.041,0.101-0.362,0.6-0.649,0.187c-0.088,0.435,0.257,0.719,0.472,0.649
				c-0.454,0.793,0.101,1.09,0.192,1.578c0.159-0.441-0.252-0.673,0.11-0.888c0.054,0.167,0.224,0.737,0.186,0.905
				c-0.03,0.132-0.046,0.487-0.226,0.988c-0.104,0.291,0.198,0.369,0.423,0.362c0.639-0.02,0.173,1.518,1.197,1.305
				c0.281-0.059,0.952-0.459,1.182,0.005c0.051,0.104,0.341,0.478-0.377,0.839c-1.097,0.551-2.646,0.641-3.063,1.342
				c-0.417,0.701,0.132,1.316-0.225,2.241c-0.166,0.431-2.015,2.763-3.234,3.553c-2.11-1.193-6.477-4.549-8.238-4.863
				c-1.256-0.224-8.16-1.782-9.782-2.325c-0.16-0.861,0.098-2.434,0.497-3.401c0.145-0.352-0.376-0.73-0.658-0.573
				c-0.673,0.372-1.589,0.923-1.92,2.058c-0.113,0.389-0.188,1.045-0.296,1.412c-0.301,1.026-0.48,1.491-0.637,1.964
				c-0.286,0.865,0.744,1.317,1.174,1.201c0.618-0.167,0.009,0.304-0.066,1.032c2.629,0.408,7.166,1.82,11.104,3.948
				c2.812,1.52,4.925,3.977,6.613,5.787c0.033,0.721,0.309,7.729,1.004,9.581c0.427,1.138,4.084,8.115,3.494,10.194
				c0.549,0.179,1.1,0.21,1.764,0.036c0.378,0.863-2.206,2.132-2.909,2.283c-0.279,0.06-0.24,0.591-0.089,0.696
				c0.365,0.254,0.796,0.481,2.02,0.433c1.528-0.061,1.69-0.508,2.454-0.985c0.634-0.396,1.079-0.542,1.626-0.728
				c0.282-0.096,0.194-0.959-0.181-1.811c-0.894-2.034-2.103-11.138-3.753-10.994c0.06-0.014,0.26-0.148,0.241-0.302
				c-0.015-0.124-0.561-4.622,0.913-7.028c0.309-0.503,1.007-1.448,1.059-2.741c0.165,0.11,0.362,0.255,0.798,0.336
				c-0.791-2.519,2.021-4.936,4.552-7.271c0.152,0.647,0.818,2.33,1.117,2.973C64.24,36.904,66.403,38.222,67.131,39.486"/>
		</defs>
		<clipPath id="SVGID_92_">
			<use xlink:href="#SVGID_91_"  style="overflow:visible;"/>
		</clipPath>
		<rect x="25.71" y="14.912" style="clip-path:url(#SVGID_92_);fill:#FFFFFF;" width="51.553" height="54.379"/>
	</g>
</g>
<g>
	<defs>
		<rect id="SVGID_93_" x="-470" y="-47" width="1024" height="6418"/>
	</defs>
	<clipPath id="SVGID_94_">
		<use xlink:href="#SVGID_93_"  style="overflow:visible;"/>
	</clipPath>
	<g style="clip-path:url(#SVGID_94_);">
		<defs>
			<path id="SVGID_95_" d="M24.473,29.386c-0.347-0.799-0.968-1.622-2.042-2.647c-0.161-0.154-0.144-0.208-0.187-0.482
				c-0.028-0.178-0.134-0.287-0.369-0.333c-0.054-0.011-0.164,0.043-0.3-0.129c-0.054-0.069-0.524-0.593-1.148-0.562
				c-0.426,0.021-0.76-0.373-0.948-0.494c-0.145-0.094-0.288-0.121-0.42-0.149c-0.244-0.052-0.386,0.244-0.154,0.346
				c0.352,0.155,0.431,0.211,0.683,0.535c0.067,0.086,0.117,0.13,0.28,0.186c0.176,0.061-0.269,0.181-0.355,0.232
				c-0.104,0.062-0.323,0.06-0.424,0.089c-0.146,0.042-0.521,0.184-0.614,0.227c-0.24,0.109-0.074,0.335,0.142,0.243
				c0.312-0.132,0.518-0.075,0.627-0.108c0.326-0.098,0.511-0.101,0.65,0.058c-0.285,0.139-0.111,0.125-0.367,0.25
				c-0.255,0.124-0.038,0.322,0.132,0.223c0.148-0.086,0.317-0.087,0.508-0.193c0.122-0.068,0.223-0.003,0.338,0.074
				c-0.067,0.047-0.122,0.266-0.129,0.312c-0.025,0.165,0.168,0.24,0.223,0.131c0.154-0.304,0.236-0.317,0.384-0.213
				c0.94,0.707,1.633,2.493,1.855,2.913c-3.037,2.185,0.813,5.579-0.82,6.258c0.082,0.112,0.345,0.747,1.961,0.024
				c1.013,0.345,0.896,2.661,0.179,3.75c-0.326,0.495-0.731,1.098-0.269,2.472c0.364,1.082-0.269,2.795-0.116,4.232
				c0.019,0.175-0.044,0.428-0.307,0.426c-1.24-0.009-4.069,1.32-5.759,1.122c-0.402-0.047-0.949-0.301-1.264-0.349
				c-0.471-0.071-0.807-0.183-1.134-0.295c-0.161-0.055-0.31,0.047-0.242,0.22c0.071,0.182,0.451,0.416,0.802,0.484
				c0.68,0.133,0.212,0.87-0.849,0.864l-1.791-0.011c-0.531-0.003-0.495,0.565-0.028,0.503l1.396,0.059
				c0.438,0.019,0.5,0.28,0.187,0.43c-0.267,0.128-1.325,0.461-1.654,0.57c-0.538,0.102-0.325,0.679,0.119,0.525
				c0.501-0.174,1.331-0.477,1.823-0.624c0.349-0.104,0.527,0.01,0.284,0.237l-1.226,1.145c-0.421,0.394-0.096,0.749,0.412,0.288
				l1.281-1.164c0.237-0.215,0.447-0.054,0.356,0.176l-0.516,1.295c-0.192,0.483,0.258,0.494,0.408,0.161l0.675-1.501
				c0.234-0.52,0.861-0.975,1.676-1.228c1.447-0.45,5.861-0.426,6.637-0.77c0,0,0.749-0.268,0.781-0.58
				c0.077-0.391,0.864-4.18,0.776-5.742c2.205,0.135,6.667-0.348,7.386,3.159c0.206-0.171,0.242-0.147,0.455-0.268
				c-0.208,0.491-0.274,3.578,2.071,4.305c1.209,0.374,2.333,2.759,4.103,4.441c-1.809,1.548-6.716,3.314-9.329,4.348
				c0.061,0.267,0.16,0.445,0.45,0.594c-0.334,0.373-0.693,0.587-0.51,0.889c0.3,0.493,0.88,0.769,1.231,1.429
				c0.423,0.795,0.34,1.264,1.633,2.08c2.059,1.301,2.611,0.181,2.237-0.012c-0.538-0.278-0.966-0.97-1.247-1.678
				c0.092-0.034,0.186-0.074,0.283-0.121c0,0,7.856-2.053,10.646-5.255c0.195-0.224,1.177-2.767-4.366-10.428
				c0,0-0.795-3.492-8.148-8.457c-0.533-0.36-0.198-2.221-2.985-2.106c-0.876,0.036-1.637-0.021-2.758-1.143
				c0,0,0.279-1.726-0.608-2.947c-0.296-0.408-0.062-0.415,0.099-0.187C27.149,29.936,25.753,29.248,24.473,29.386"/>
		</defs>
		<clipPath id="SVGID_96_">
			<use xlink:href="#SVGID_95_"  style="overflow:visible;"/>
		</clipPath>
		<rect x="7.812" y="19.584" style="clip-path:url(#SVGID_96_);fill:#FFFFFF;" width="43.405" height="49.884"/>
	</g>
</g>
</svg>
